<svg xmlns="http://www.w3.org/2000/svg" width="393" height="852" viewBox="0 0 393 852">
<defs>
  <filter id="shadow" x="-20%" y="-20%" width="140%" height="160%">
    <feDropShadow dx="0" dy="8" stdDeviation="9" flood-color="#0F172A" flood-opacity="0.10"/>
  </filter>
  <filter id="softShadow" x="-20%" y="-20%" width="140%" height="160%">
    <feDropShadow dx="0" dy="4" stdDeviation="5" flood-color="#0F172A" flood-opacity="0.08"/>
  </filter>
  <linearGradient id="hero" x1="0" y1="0" x2="1" y2="1">
    <stop offset="0%" stop-color="#2563EB"/>
    <stop offset="100%" stop-color="#14B8A6"/>
  </linearGradient>
  <linearGradient id="mapFade" x1="0" y1="0" x2="0" y2="1">
    <stop offset="0%" stop-color="#F8FBFF"/>
    <stop offset="100%" stop-color="#EEF6FA"/>
  </linearGradient>
</defs>
<rect x="0" y="0" width="393" height="852" fill="url(#mapFade)" opacity="1"/><text x="28" y="25" font-family="Inter, DejaVu Sans, Arial, sans-serif" font-size="13" font-weight="700" fill="#0F172A" text-anchor="start" opacity="1" letter-spacing="0">9:41</text><rect x="326" y="15" width="22" height="10" fill="none" opacity="0.9" rx="3" ry="3" stroke="#0F172A" stroke-width="1.5"/><rect x="349" y="18" width="2" height="4" fill="#0F172A" opacity="0.9" rx="1" ry="1"/><rect x="329" y="18" width="15" height="4" fill="#0F172A" opacity="0.9" rx="1" ry="1"/><path d="M300 23 L305 18 L310 23" fill="none" opacity="0.9" stroke="#0F172A" stroke-width="1.7" stroke-linecap="round" stroke-linejoin="round"/><path d="M313 21 C316 18 320 18 323 21" fill="none" opacity="0.9" stroke="#0F172A" stroke-width="1.7" stroke-linecap="round" stroke-linejoin="round"/><path d="M-20 180 C70 150 110 220 70 310 C35 390 118 450 77 548 C43 628 83 704 -16 765 L-20 180 Z" fill="#DFF4FF" opacity="0.95"/><path d="M262 155 C347 127 392 188 372 255 C353 319 272 309 237 263 C204 220 205 174 262 155 Z" fill="#DFF3E8" opacity="0.85"/><path d="M245 560 C303 525 370 552 383 623 C396 698 313 728 256 700 C207 676 202 590 245 560 Z" fill="#DFF3E8" opacity="0.75"/><path d="M-10 250 C90 230 160 244 250 218 C315 199 365 208 420 190" fill="none" opacity="0.95" stroke="#FFFFFF" stroke-width="15" stroke-linecap="round" stroke-linejoin="round"/><path d="M-10 250 C90 230 160 244 250 218 C315 199 365 208 420 190" fill="none" opacity="0.55" stroke="#CBD5E1" stroke-width="1.2" stroke-linecap="round" stroke-linejoin="round"/><path d="M40 95 C83 175 143 197 195 255 C260 328 300 405 386 442" fill="none" opacity="0.95" stroke="#FFFFFF" stroke-width="14" stroke-linecap="round" stroke-linejoin="round"/><path d="M40 95 C83 175 143 197 195 255 C260 328 300 405 386 442" fill="none" opacity="0.55" stroke="#CBD5E1" stroke-width="1.2" stroke-linecap="round" stroke-linejoin="round"/><path d="M-15 610 C73 560 131 536 220 544 C301 552 345 522 405 493" fill="none" opacity="0.95" stroke="#FFFFFF" stroke-width="15" stroke-linecap="round" stroke-linejoin="round"/><path d="M-15 610 C73 560 131 536 220 544 C301 552 345 522 405 493" fill="none" opacity="0.55" stroke="#CBD5E1" stroke-width="1.2" stroke-linecap="round" stroke-linejoin="round"/><path d="M108 50 C139 165 141 262 135 360 C130 457 157 560 190 675 C204 724 225 776 256 856" fill="none" opacity="0.95" stroke="#FFFFFF" stroke-width="13" stroke-linecap="round" stroke-linejoin="round"/><path d="M108 50 C139 165 141 262 135 360 C130 457 157 560 190 675 C204 724 225 776 256 856" fill="none" opacity="0.55" stroke="#CBD5E1" stroke-width="1.2" stroke-linecap="round" stroke-linejoin="round"/><path d="M360 64 C316 166 303 261 306 350 C310 482 344 590 316 754" fill="none" opacity="0.95" stroke="#FFFFFF" stroke-width="12" stroke-linecap="round" stroke-linejoin="round"/><path d="M360 64 C316 166 303 261 306 350 C310 482 344 590 316 754" fill="none" opacity="0.55" stroke="#CBD5E1" stroke-width="1.2" stroke-linecap="round" stroke-linejoin="round"/><path d="M-5 386 C82 391 153 373 221 383 C296 394 331 420 409 402" fill="none" opacity="0.95" stroke="#FFFFFF" stroke-width="12" stroke-linecap="round" stroke-linejoin="round"/><path d="M-5 386 C82 391 153 373 221 383 C296 394 331 420 409 402" fill="none" opacity="0.55" stroke="#CBD5E1" stroke-width="1.2" stroke-linecap="round" stroke-linejoin="round"/><path d="M66 774 C119 705 164 670 221 630 C277 591 310 539 338 462" fill="none" opacity="0.95" stroke="#FFFFFF" stroke-width="11" stroke-linecap="round" stroke-linejoin="round"/><path d="M66 774 C119 705 164 670 221 630 C277 591 310 539 338 462" fill="none" opacity="0.55" stroke="#CBD5E1" stroke-width="1.2" stroke-linecap="round" stroke-linejoin="round"/><path d="M213 20 C204 108 200 190 218 273 C235 350 240 417 218 506" fill="none" opacity="0.95" stroke="#FFFFFF" stroke-width="11" stroke-linecap="round" stroke-linejoin="round"/><path d="M213 20 C204 108 200 190 218 273 C235 350 240 417 218 506" fill="none" opacity="0.55" stroke="#CBD5E1" stroke-width="1.2" stroke-linecap="round" stroke-linejoin="round"/><path d="M20 165 C93 180 127 210 179 222" fill="none" opacity="0.95" stroke="#FFFFFF" stroke-width="6" stroke-linecap="round" stroke-linejoin="round"/><path d="M20 165 C93 180 127 210 179 222" fill="none" opacity="0.45" stroke="#CBD5E1" stroke-width="0.8" stroke-linecap="round" stroke-linejoin="round"/><path d="M44 304 C105 287 161 298 229 287 C290 278 326 289 372 304" fill="none" opacity="0.95" stroke="#FFFFFF" stroke-width="6" stroke-linecap="round" stroke-linejoin="round"/><path d="M44 304 C105 287 161 298 229 287 C290 278 326 289 372 304" fill="none" opacity="0.45" stroke="#CBD5E1" stroke-width="0.8" stroke-linecap="round" stroke-linejoin="round"/><path d="M12 474 C95 441 169 448 236 472 C291 493 342 495 396 477" fill="none" opacity="0.95" stroke="#FFFFFF" stroke-width="6" stroke-linecap="round" stroke-linejoin="round"/><path d="M12 474 C95 441 169 448 236 472 C291 493 342 495 396 477" fill="none" opacity="0.45" stroke="#CBD5E1" stroke-width="0.8" stroke-linecap="round" stroke-linejoin="round"/><path d="M28 700 C86 642 122 604 180 581 C240 556 274 514 302 454" fill="none" opacity="0.95" stroke="#FFFFFF" stroke-width="6" stroke-linecap="round" stroke-linejoin="round"/><path d="M28 700 C86 642 122 604 180 581 C240 556 274 514 302 454" fill="none" opacity="0.45" stroke="#CBD5E1" stroke-width="0.8" stroke-linecap="round" stroke-linejoin="round"/><path d="M245 92 C267 170 271 247 260 315 C246 403 244 492 268 579" fill="none" opacity="0.95" stroke="#FFFFFF" stroke-width="6" stroke-linecap="round" stroke-linejoin="round"/><path d="M245 92 C267 170 271 247 260 315 C246 403 244 492 268 579" fill="none" opacity="0.45" stroke="#CBD5E1" stroke-width="0.8" stroke-linecap="round" stroke-linejoin="round"/><path d="M88 718 C138 655 160 590 190 520 C218 457 236 399 250 336 C263 278 275 226 311 172" fill="none" opacity="0.24" stroke="#2563EB" stroke-width="8" stroke-linecap="round" stroke-linejoin="round"/><path d="M88 718 C138 655 160 590 190 520 C218 457 236 399 250 336 C263 278 275 226 311 172" fill="none" opacity="1" stroke="#2563EB" stroke-width="4.5" stroke-linecap="round" stroke-linejoin="round"/><circle cx="102" cy="698" r="8" fill="#FFFFFF" opacity="1" stroke="#2563EB" stroke-width="3"/><circle cx="154" cy="615" r="8" fill="#FFFFFF" opacity="1" stroke="#2563EB" stroke-width="3"/><circle cx="195" cy="510" r="8" fill="#FFFFFF" opacity="1" stroke="#2563EB" stroke-width="3"/><circle cx="232" cy="396" r="8" fill="#FFFFFF" opacity="1" stroke="#2563EB" stroke-width="3"/><circle cx="258" cy="300" r="8" fill="#FFFFFF" opacity="1" stroke="#2563EB" stroke-width="3"/><circle cx="299" cy="195" r="8" fill="#FFFFFF" opacity="1" stroke="#2563EB" stroke-width="3"/><path d="M232 414 C217 396 224 378 232 378 C240 378 247 396 232 414 Z" fill="#2563EB" opacity="1" stroke="#FFFFFF" stroke-width="3" stroke-linecap="round" stroke-linejoin="round"/><circle cx="232" cy="391" r="5" fill="#FFFFFF" opacity="1"/><circle cx="250" cy="336" r="18" fill="#14B8A6" opacity="1" stroke="#FFFFFF" stroke-width="5"/><path d="M241 337 L249 322 L260 337 L252 335 L252 348 L247 348 L247 335 Z" fill="#FFFFFF" opacity="1"/><circle cx="250" cy="336" r="30" fill="#14B8A6" opacity="0.16"/><rect x="16" y="54" width="361" height="104" fill="#FFFFFF" opacity="0.98" rx="26" ry="26" stroke="#E2E8F0" stroke-width="1"/><path d="M46 78 L38 86 L46 94" fill="none" opacity="1" stroke="#0F172A" stroke-width="2.2" stroke-linecap="round" stroke-linejoin="round"/><text x="64" y="82" font-family="Inter, DejaVu Sans, Arial, sans-serif" font-size="22" font-weight="850" fill="#0F172A" text-anchor="start" opacity="1" letter-spacing="0">Tram 26</text><text x="64" y="107" font-family="Inter, DejaVu Sans, Arial, sans-serif" font-size="13" font-weight="400" fill="#64748B" text-anchor="start" opacity="1" letter-spacing="0">Hradčanská → Nádraží Hostivař</text><rect x="297" y="71" width="58" height="28" fill="#E7F8EF" opacity="1" rx="14" ry="14"/><circle cx="313" cy="85" r="4.5" fill="#16A34A" opacity="1"/><text x="326" y="90" font-family="Inter, DejaVu Sans, Arial, sans-serif" font-size="11.5" font-weight="800" fill="#166534" text-anchor="start" opacity="1" letter-spacing="0">live</text><text x="64" y="131" font-family="Inter, DejaVu Sans, Arial, sans-serif" font-size="12" font-weight="400" fill="#94A3B8" text-anchor="start" opacity="1" letter-spacing="0">Poloha vozidla se obnovuje automaticky</text><rect x="325" y="194" width="46" height="46" fill="#FFFFFF" opacity="1" rx="18" ry="18" stroke="#E2E8F0" stroke-width="1"/><path d="M338 217 L348 207 L358 217 M348 207 L348 229" fill="none" opacity="1" stroke="#2563EB" stroke-width="2" stroke-linecap="round" stroke-linejoin="round"/><rect x="325" y="250" width="46" height="46" fill="#FFFFFF" opacity="1" rx="18" ry="18" stroke="#E2E8F0" stroke-width="1"/><circle cx="348" cy="273" r="9" fill="none" opacity="1" stroke="#2563EB" stroke-width="2"/><line x1="348" y1="258" x2="348" y2="264" stroke="#2563EB" stroke-width="2" stroke-linecap="round" opacity="1"/><line x1="348" y1="282" x2="348" y2="288" stroke="#2563EB" stroke-width="2" stroke-linecap="round" opacity="1"/><line x1="333" y1="273" x2="339" y2="273" stroke="#2563EB" stroke-width="2" stroke-linecap="round" opacity="1"/><line x1="357" y1="273" x2="363" y2="273" stroke="#2563EB" stroke-width="2" stroke-linecap="round" opacity="1"/><rect x="16" y="624" width="361" height="119" fill="#FFFFFF" opacity="1" rx="28" ry="28" stroke="#E2E8F0" stroke-width="1"/><rect x="38" y="648" width="55" height="42" fill="#EAF2FF" opacity="1" rx="16" ry="16"/><text x="65.5" y="675" font-family="Inter, DejaVu Sans, Arial, sans-serif" font-size="20" font-weight="850" fill="#2563EB" text-anchor="middle" opacity="1" letter-spacing="0">26</text><text x="108" y="660" font-family="Inter, DejaVu Sans, Arial, sans-serif" font-size="13" font-weight="600" fill="#64748B" text-anchor="start" opacity="1" letter-spacing="0">Vozidlo na trase</text><text x="108" y="683" font-family="Inter, DejaVu Sans, Arial, sans-serif" font-size="16" font-weight="800" fill="#0F172A" text-anchor="start" opacity="1" letter-spacing="0">další zastávka: Prašný most</text><rect x="38" y="706" width="304" height="10" fill="#E2E8F0" opacity="1" rx="5" ry="5"/><rect x="38" y="706" width="157" height="10" fill="#14B8A6" opacity="1" rx="5" ry="5"/><circle cx="195" cy="711" r="8" fill="#14B8A6" opacity="1" stroke="#FFFFFF" stroke-width="3"/><text x="38" y="733" font-family="Inter, DejaVu Sans, Arial, sans-serif" font-size="12" font-weight="400" fill="#64748B" text-anchor="start" opacity="1" letter-spacing="0">Aktualizováno před 5 s</text><text x="342" y="733" font-family="Inter, DejaVu Sans, Arial, sans-serif" font-size="12" font-weight="400" fill="#64748B" text-anchor="end" opacity="1" letter-spacing="0">obnova za 10 s</text><rect x="0" y="752" width="393" height="100" fill="#FFFFFF" opacity="1" stroke="#E2E8F0" stroke-width="1"/><circle cx="66" cy="783" r="8" fill="none" opacity="1" stroke="#94A3B8" stroke-width="2"/><path d="M66 791 C58 781 58 776 66 771 C74 776 74 781 66 791" fill="none" opacity="1" stroke="#94A3B8" stroke-width="2" stroke-linecap="round" stroke-linejoin="round"/><text x="66" y="826" font-family="Inter, DejaVu Sans, Arial, sans-serif" font-size="11.5" font-weight="500" fill="#94A3B8" text-anchor="middle" opacity="1" letter-spacing="0">Zastávky</text><rect x="184" y="773" width="26" height="18" fill="none" opacity="1" rx="4" ry="4" stroke="#94A3B8" stroke-width="2"/><circle cx="190" cy="795" r="2.5" fill="#94A3B8" opacity="1"/><circle cx="204" cy="795" r="2.5" fill="#94A3B8" opacity="1"/><line x1="189" y1="779" x2="205" y2="779" stroke="#94A3B8" stroke-width="2" stroke-linecap="round" opacity="1"/><text x="197" y="826" font-family="Inter, DejaVu Sans, Arial, sans-serif" font-size="11.5" font-weight="500" fill="#94A3B8" text-anchor="middle" opacity="1" letter-spacing="0">Odjezdy</text><rect x="283" y="765" width="90" height="46" fill="#EAF2FF" opacity="1" rx="23" ry="23"/><path d="M316 793 L323 772 L340 765 L333 786 Z" fill="none" opacity="1" stroke="#2563EB" stroke-width="2" stroke-linecap="round" stroke-linejoin="round"/><circle cx="329" cy="779" r="2.5" fill="#2563EB" opacity="1"/><text x="328" y="826" font-family="Inter, DejaVu Sans, Arial, sans-serif" font-size="11.5" font-weight="700" fill="#2563EB" text-anchor="middle" opacity="1" letter-spacing="0">Mapa</text>
</svg>