<svg xmlns="http://www.w3.org/2000/svg" width="393" height="852" viewBox="0 0 393 852">
<defs>
  <filter id="shadow" x="-20%" y="-20%" width="140%" height="160%">
    <feDropShadow dx="0" dy="8" stdDeviation="9" flood-color="#0F172A" flood-opacity="0.10"/>
  </filter>
  <filter id="softShadow" x="-20%" y="-20%" width="140%" height="160%">
    <feDropShadow dx="0" dy="4" stdDeviation="5" flood-color="#0F172A" flood-opacity="0.08"/>
  </filter>
  <linearGradient id="hero" x1="0" y1="0" x2="1" y2="1">
    <stop offset="0%" stop-color="#2563EB"/>
    <stop offset="100%" stop-color="#14B8A6"/>
  </linearGradient>
  <linearGradient id="mapFade" x1="0" y1="0" x2="0" y2="1">
    <stop offset="0%" stop-color="#F8FBFF"/>
    <stop offset="100%" stop-color="#EEF6FA"/>
  </linearGradient>
</defs>
<rect x="0" y="0" width="393" height="852" fill="#F6F8FB" opacity="1"/><text x="28" y="25" font-family="Inter, DejaVu Sans, Arial, sans-serif" font-size="13" font-weight="700" fill="#0F172A" text-anchor="start" opacity="1" letter-spacing="0">9:41</text><rect x="326" y="15" width="22" height="10" fill="none" opacity="0.9" rx="3" ry="3" stroke="#0F172A" stroke-width="1.5"/><rect x="349" y="18" width="2" height="4" fill="#0F172A" opacity="0.9" rx="1" ry="1"/><rect x="329" y="18" width="15" height="4" fill="#0F172A" opacity="0.9" rx="1" ry="1"/><path d="M300 23 L305 18 L310 23" fill="none" opacity="0.9" stroke="#0F172A" stroke-width="1.7" stroke-linecap="round" stroke-linejoin="round"/><path d="M313 21 C316 18 320 18 323 21" fill="none" opacity="0.9" stroke="#0F172A" stroke-width="1.7" stroke-linecap="round" stroke-linejoin="round"/><rect x="20" y="50" width="353" height="118" fill="url(#hero)" opacity="1" rx="28" ry="28"/><circle cx="335" cy="78" r="38" fill="#FFFFFF" opacity="0.14"/><circle cx="311" cy="134" r="62" fill="#FFFFFF" opacity="0.1"/><text x="38" y="86" font-family="Inter, DejaVu Sans, Arial, sans-serif" font-size="25" font-weight="800" fill="#FFFFFF" text-anchor="start" opacity="1" letter-spacing="0">Zastávky PID</text><text x="38" y="113" font-family="Inter, DejaVu Sans, Arial, sans-serif" font-size="14" font-weight="400" fill="#FFFFFF" text-anchor="start" opacity="0.9" letter-spacing="0">Najděte zastávku a pokračujte</text><text x="38" y="134" font-family="Inter, DejaVu Sans, Arial, sans-serif" font-size="14" font-weight="400" fill="#FFFFFF" text-anchor="start" opacity="0.9" letter-spacing="0">na aktuální odjezdy</text><rect x="310" y="89" width="36" height="44" fill="#FFFFFF" opacity="0.22" rx="10" ry="10"/><line x1="318" y1="101" x2="338" y2="101" stroke="#FFFFFF" stroke-width="2" stroke-linecap="round" opacity="0.75"/><line x1="318" y1="111" x2="338" y2="111" stroke="#FFFFFF" stroke-width="2" stroke-linecap="round" opacity="0.75"/><circle cx="322" cy="123" r="3" fill="#FFFFFF" opacity="0.75"/><circle cx="334" cy="123" r="3" fill="#FFFFFF" opacity="0.75"/><rect x="20" y="188" width="353" height="54" fill="#FFFFFF" opacity="1" rx="20" ry="20" stroke="#E2E8F0" stroke-width="1"/><circle cx="43" cy="215" r="6.5" fill="none" opacity="1" stroke="#94A3B8" stroke-width="2"/><line x1="48" y1="220" x2="54" y2="226" stroke="#94A3B8" stroke-width="2" stroke-linecap="round" opacity="1"/><text x="64" y="221" font-family="Inter, DejaVu Sans, Arial, sans-serif" font-size="15" font-weight="400" fill="#94A3B8" text-anchor="start" opacity="1" letter-spacing="0">Vyhledat zastávku...</text><rect x="322" y="201" width="36" height="28" fill="#EAF2FF" opacity="1" rx="14" ry="14"/><path d="M335 209 L345 209 M335 215 L350 215 M335 221 L342 221" fill="none" opacity="1" stroke="#2563EB" stroke-width="2" stroke-linecap="round" stroke-linejoin="round"/><rect x="20" y="260" width="54" height="34" fill="#2563EB" opacity="1" rx="17" ry="17" stroke="#2563EB" stroke-width="1"/><text x="47.0" y="282" font-family="Inter, DejaVu Sans, Arial, sans-serif" font-size="12" font-weight="700" fill="#FFFFFF" text-anchor="middle" opacity="1" letter-spacing="0">Vše</text><rect x="84" y="260" width="62" height="34" fill="#FFFFFF" opacity="1" rx="17" ry="17" stroke="#E2E8F0" stroke-width="1"/><text x="115.0" y="282" font-family="Inter, DejaVu Sans, Arial, sans-serif" font-size="12" font-weight="700" fill="#64748B" text-anchor="middle" opacity="1" letter-spacing="0">Tram</text><rect x="156" y="260" width="56" height="34" fill="#FFFFFF" opacity="1" rx="17" ry="17" stroke="#E2E8F0" stroke-width="1"/><text x="184.0" y="282" font-family="Inter, DejaVu Sans, Arial, sans-serif" font-size="12" font-weight="700" fill="#64748B" text-anchor="middle" opacity="1" letter-spacing="0">Bus</text><rect x="222" y="260" width="70" height="34" fill="#FFFFFF" opacity="1" rx="17" ry="17" stroke="#E2E8F0" stroke-width="1"/><text x="257.0" y="282" font-family="Inter, DejaVu Sans, Arial, sans-serif" font-size="12" font-weight="700" fill="#64748B" text-anchor="middle" opacity="1" letter-spacing="0">Metro</text><text x="20" y="322" font-family="Inter, DejaVu Sans, Arial, sans-serif" font-size="18" font-weight="800" fill="#0F172A" text-anchor="start" opacity="1" letter-spacing="0">Nejbližší zastávky</text><text x="373" y="322" font-family="Inter, DejaVu Sans, Arial, sans-serif" font-size="13" font-weight="700" fill="#2563EB" text-anchor="end" opacity="1" letter-spacing="0">Filtrovat</text><rect x="20" y="342" width="353" height="76" fill="#EAF2FF" opacity="1" rx="20" ry="20" stroke="#BFDBFE" stroke-width="1"/><circle cx="50" cy="380" r="18" fill="#DBEAFE" opacity="1"/><path d="M50 391 C37 375 42 362 50 362 C58 362 63 375 50 391 Z" fill="none" opacity="1" stroke="#2563EB" stroke-width="2" stroke-linecap="round" stroke-linejoin="round"/><circle cx="50" cy="373" r="4" fill="#2563EB" opacity="1"/><text x="80" y="372" font-family="Inter, DejaVu Sans, Arial, sans-serif" font-size="16" font-weight="700" fill="#0F172A" text-anchor="start" opacity="1" letter-spacing="0">Hradčanská</text><text x="80" y="394" font-family="Inter, DejaVu Sans, Arial, sans-serif" font-size="12.5" font-weight="400" fill="#64748B" text-anchor="start" opacity="1" letter-spacing="0">tram, metro A, bus</text><rect x="245" y="359" width="58" height="24" fill="#DBEAFE" opacity="1" rx="12" ry="12"/><text x="274" y="376" font-family="Inter, DejaVu Sans, Arial, sans-serif" font-size="10.3" font-weight="800" fill="#2563EB" text-anchor="middle" opacity="1" letter-spacing="0">3 linky</text><text x="305" y="396" font-family="Inter, DejaVu Sans, Arial, sans-serif" font-size="12" font-weight="400" fill="#94A3B8" text-anchor="end" opacity="1" letter-spacing="0">320 m</text><path d="M343 373 L351 380 L343 387" fill="none" opacity="1" stroke="#94A3B8" stroke-width="2" stroke-linecap="round" stroke-linejoin="round"/><rect x="20" y="430" width="353" height="76" fill="#FFFFFF" opacity="1" rx="20" ry="20" stroke="#E2E8F0" stroke-width="1"/><circle cx="50" cy="468" r="18" fill="#DDF8F3" opacity="1"/><path d="M50 479 C37 463 42 450 50 450 C58 450 63 463 50 479 Z" fill="none" opacity="1" stroke="#0F766E" stroke-width="2" stroke-linecap="round" stroke-linejoin="round"/><circle cx="50" cy="461" r="4" fill="#0F766E" opacity="1"/><text x="80" y="460" font-family="Inter, DejaVu Sans, Arial, sans-serif" font-size="16" font-weight="700" fill="#0F172A" text-anchor="start" opacity="1" letter-spacing="0">Staroměstská</text><text x="80" y="482" font-family="Inter, DejaVu Sans, Arial, sans-serif" font-size="12.5" font-weight="400" fill="#64748B" text-anchor="start" opacity="1" letter-spacing="0">metro A, tram</text><rect x="245" y="447" width="58" height="24" fill="#DDF8F3" opacity="1" rx="12" ry="12"/><text x="274" y="464" font-family="Inter, DejaVu Sans, Arial, sans-serif" font-size="10.3" font-weight="800" fill="#0F766E" text-anchor="middle" opacity="1" letter-spacing="0">2 linky</text><text x="305" y="484" font-family="Inter, DejaVu Sans, Arial, sans-serif" font-size="12" font-weight="400" fill="#94A3B8" text-anchor="end" opacity="1" letter-spacing="0">610 m</text><path d="M343 461 L351 468 L343 475" fill="none" opacity="1" stroke="#94A3B8" stroke-width="2" stroke-linecap="round" stroke-linejoin="round"/><rect x="20" y="518" width="353" height="76" fill="#FFFFFF" opacity="1" rx="20" ry="20" stroke="#E2E8F0" stroke-width="1"/><circle cx="50" cy="556" r="18" fill="#DDF8F3" opacity="1"/><path d="M50 567 C37 551 42 538 50 538 C58 538 63 551 50 567 Z" fill="none" opacity="1" stroke="#0F766E" stroke-width="2" stroke-linecap="round" stroke-linejoin="round"/><circle cx="50" cy="549" r="4" fill="#0F766E" opacity="1"/><text x="80" y="548" font-family="Inter, DejaVu Sans, Arial, sans-serif" font-size="15" font-weight="700" fill="#0F172A" text-anchor="start" opacity="1" letter-spacing="0">Nádraží Holešovice</text><text x="80" y="570" font-family="Inter, DejaVu Sans, Arial, sans-serif" font-size="12.5" font-weight="400" fill="#64748B" text-anchor="start" opacity="1" letter-spacing="0">metro C, tram, bus</text><rect x="245" y="535" width="58" height="24" fill="#DDF8F3" opacity="1" rx="12" ry="12"/><text x="274" y="552" font-family="Inter, DejaVu Sans, Arial, sans-serif" font-size="10.3" font-weight="800" fill="#0F766E" text-anchor="middle" opacity="1" letter-spacing="0">3 linky</text><text x="305" y="572" font-family="Inter, DejaVu Sans, Arial, sans-serif" font-size="12" font-weight="400" fill="#94A3B8" text-anchor="end" opacity="1" letter-spacing="0">1,1 km</text><path d="M343 549 L351 556 L343 563" fill="none" opacity="1" stroke="#94A3B8" stroke-width="2" stroke-linecap="round" stroke-linejoin="round"/><rect x="20" y="606" width="353" height="76" fill="#FFFFFF" opacity="1" rx="20" ry="20" stroke="#E2E8F0" stroke-width="1"/><circle cx="50" cy="644" r="18" fill="#DDF8F3" opacity="1"/><path d="M50 655 C37 639 42 626 50 626 C58 626 63 639 50 655 Z" fill="none" opacity="1" stroke="#0F766E" stroke-width="2" stroke-linecap="round" stroke-linejoin="round"/><circle cx="50" cy="637" r="4" fill="#0F766E" opacity="1"/><text x="80" y="636" font-family="Inter, DejaVu Sans, Arial, sans-serif" font-size="16" font-weight="700" fill="#0F172A" text-anchor="start" opacity="1" letter-spacing="0">Anděl</text><text x="80" y="658" font-family="Inter, DejaVu Sans, Arial, sans-serif" font-size="12.5" font-weight="400" fill="#64748B" text-anchor="start" opacity="1" letter-spacing="0">metro B, tram, bus</text><rect x="245" y="623" width="58" height="24" fill="#DDF8F3" opacity="1" rx="12" ry="12"/><text x="274" y="640" font-family="Inter, DejaVu Sans, Arial, sans-serif" font-size="10.3" font-weight="800" fill="#0F766E" text-anchor="middle" opacity="1" letter-spacing="0">3 linky</text><text x="305" y="660" font-family="Inter, DejaVu Sans, Arial, sans-serif" font-size="12" font-weight="400" fill="#94A3B8" text-anchor="end" opacity="1" letter-spacing="0">1,8 km</text><path d="M343 637 L351 644 L343 651" fill="none" opacity="1" stroke="#94A3B8" stroke-width="2" stroke-linecap="round" stroke-linejoin="round"/><rect x="20" y="706" width="353" height="36" fill="#E7F8EF" opacity="1" rx="18" ry="18"/><circle cx="42" cy="724" r="7" fill="#16A34A" opacity="1"/><text x="58" y="729" font-family="Inter, DejaVu Sans, Arial, sans-serif" font-size="12.2" font-weight="600" fill="#166534" text-anchor="start" opacity="1" letter-spacing="0">Data zastávek jsou připravena k vyhledávání</text><rect x="0" y="752" width="393" height="100" fill="#FFFFFF" opacity="1" stroke="#E2E8F0" stroke-width="1"/><rect x="21" y="765" width="90" height="46" fill="#EAF2FF" opacity="1" rx="23" ry="23"/><circle cx="66" cy="783" r="8" fill="none" opacity="1" stroke="#2563EB" stroke-width="2"/><path d="M66 791 C58 781 58 776 66 771 C74 776 74 781 66 791" fill="none" opacity="1" stroke="#2563EB" stroke-width="2" stroke-linecap="round" stroke-linejoin="round"/><text x="66" y="826" font-family="Inter, DejaVu Sans, Arial, sans-serif" font-size="11.5" font-weight="700" fill="#2563EB" text-anchor="middle" opacity="1" letter-spacing="0">Zastávky</text><rect x="184" y="773" width="26" height="18" fill="none" opacity="1" rx="4" ry="4" stroke="#94A3B8" stroke-width="2"/><circle cx="190" cy="795" r="2.5" fill="#94A3B8" opacity="1"/><circle cx="204" cy="795" r="2.5" fill="#94A3B8" opacity="1"/><line x1="189" y1="779" x2="205" y2="779" stroke="#94A3B8" stroke-width="2" stroke-linecap="round" opacity="1"/><text x="197" y="826" font-family="Inter, DejaVu Sans, Arial, sans-serif" font-size="11.5" font-weight="500" fill="#94A3B8" text-anchor="middle" opacity="1" letter-spacing="0">Odjezdy</text><path d="M316 793 L323 772 L340 765 L333 786 Z" fill="none" opacity="1" stroke="#94A3B8" stroke-width="2" stroke-linecap="round" stroke-linejoin="round"/><circle cx="329" cy="779" r="2.5" fill="#94A3B8" opacity="1"/><text x="328" y="826" font-family="Inter, DejaVu Sans, Arial, sans-serif" font-size="11.5" font-weight="500" fill="#94A3B8" text-anchor="middle" opacity="1" letter-spacing="0">Mapa</text>
</svg>