<svg xmlns="http://www.w3.org/2000/svg" width="393" height="852" viewBox="0 0 393 852">
<defs>
  <filter id="shadow" x="-20%" y="-20%" width="140%" height="160%">
    <feDropShadow dx="0" dy="8" stdDeviation="9" flood-color="#0F172A" flood-opacity="0.10"/>
  </filter>
  <filter id="softShadow" x="-20%" y="-20%" width="140%" height="160%">
    <feDropShadow dx="0" dy="4" stdDeviation="5" flood-color="#0F172A" flood-opacity="0.08"/>
  </filter>
  <linearGradient id="hero" x1="0" y1="0" x2="1" y2="1">
    <stop offset="0%" stop-color="#2563EB"/>
    <stop offset="100%" stop-color="#14B8A6"/>
  </linearGradient>
  <linearGradient id="mapFade" x1="0" y1="0" x2="0" y2="1">
    <stop offset="0%" stop-color="#F8FBFF"/>
    <stop offset="100%" stop-color="#EEF6FA"/>
  </linearGradient>
</defs>
<rect x="0" y="0" width="393" height="852" fill="#F6F8FB" opacity="1"/><text x="28" y="25" font-family="Inter, DejaVu Sans, Arial, sans-serif" font-size="13" font-weight="700" fill="#0F172A" text-anchor="start" opacity="1" letter-spacing="0">9:41</text><rect x="326" y="15" width="22" height="10" fill="none" opacity="0.9" rx="3" ry="3" stroke="#0F172A" stroke-width="1.5"/><rect x="349" y="18" width="2" height="4" fill="#0F172A" opacity="0.9" rx="1" ry="1"/><rect x="329" y="18" width="15" height="4" fill="#0F172A" opacity="0.9" rx="1" ry="1"/><path d="M300 23 L305 18 L310 23" fill="none" opacity="0.9" stroke="#0F172A" stroke-width="1.7" stroke-linecap="round" stroke-linejoin="round"/><path d="M313 21 C316 18 320 18 323 21" fill="none" opacity="0.9" stroke="#0F172A" stroke-width="1.7" stroke-linecap="round" stroke-linejoin="round"/><rect x="0" y="44" width="393" height="118" fill="#FFFFFF" opacity="1"/><path d="M36 72 L28 80 L36 88" fill="none" opacity="1" stroke="#0F172A" stroke-width="2.2" stroke-linecap="round" stroke-linejoin="round"/><text x="54" y="76" font-family="Inter, DejaVu Sans, Arial, sans-serif" font-size="22" font-weight="800" fill="#0F172A" text-anchor="start" opacity="1" letter-spacing="0">Hradčanská</text><text x="54" y="101" font-family="Inter, DejaVu Sans, Arial, sans-serif" font-size="13.2" font-weight="400" fill="#64748B" text-anchor="start" opacity="1" letter-spacing="0">Odjezdy ze zastávky</text><rect x="294" y="66" width="78" height="34" fill="#DDF8F3" opacity="1" rx="17" ry="17"/><circle cx="313" cy="83" r="5" fill="#14B8A6" opacity="1"/><text x="327" y="88" font-family="Inter, DejaVu Sans, Arial, sans-serif" font-size="12.2" font-weight="800" fill="#0F766E" text-anchor="start" opacity="1" letter-spacing="0">živě</text><rect x="20" y="134" width="353" height="58" fill="#EAF2FF" opacity="1" rx="20" ry="20"/><path d="M37 163 A8 8 0 0 1 50 157" fill="none" opacity="1" stroke="#2563EB" stroke-width="2" stroke-linecap="round" stroke-linejoin="round"/><path d="M50 157 L50 151 L56 156" fill="none" opacity="1" stroke="#2563EB" stroke-width="2" stroke-linecap="round" stroke-linejoin="round"/><path d="M53 163 A8 8 0 0 1 40 169" fill="none" opacity="1" stroke="#2563EB" stroke-width="2" stroke-linecap="round" stroke-linejoin="round"/><text x="70" y="159" font-family="Inter, DejaVu Sans, Arial, sans-serif" font-size="14" font-weight="800" fill="#1D4ED8" text-anchor="start" opacity="1" letter-spacing="0">Aktualizováno před 12 s</text><text x="70" y="178" font-family="Inter, DejaVu Sans, Arial, sans-serif" font-size="12" font-weight="400" fill="#1D4ED8" text-anchor="start" opacity="0.75" letter-spacing="0">Potáhněte dolů pro obnovení odjezdů</text><text x="20" y="226" font-family="Inter, DejaVu Sans, Arial, sans-serif" font-size="18" font-weight="800" fill="#0F172A" text-anchor="start" opacity="1" letter-spacing="0">Směr a nástupiště</text><rect x="20" y="244" width="54" height="34" fill="#2563EB" opacity="1" rx="17" ry="17" stroke="#2563EB" stroke-width="1"/><text x="47.0" y="266" font-family="Inter, DejaVu Sans, Arial, sans-serif" font-size="12" font-weight="700" fill="#FFFFFF" text-anchor="middle" opacity="1" letter-spacing="0">Vše</text><rect x="84" y="244" width="88" height="34" fill="#FFFFFF" opacity="1" rx="17" ry="17" stroke="#E2E8F0" stroke-width="1"/><text x="128.0" y="266" font-family="Inter, DejaVu Sans, Arial, sans-serif" font-size="12" font-weight="700" fill="#64748B" text-anchor="middle" opacity="1" letter-spacing="0">Centrum</text><rect x="182" y="244" width="88" height="34" fill="#FFFFFF" opacity="1" rx="17" ry="17" stroke="#E2E8F0" stroke-width="1"/><text x="226.0" y="266" font-family="Inter, DejaVu Sans, Arial, sans-serif" font-size="12" font-weight="700" fill="#64748B" text-anchor="middle" opacity="1" letter-spacing="0">Dejvická</text><rect x="280" y="244" width="72" height="34" fill="#FFFFFF" opacity="1" rx="17" ry="17" stroke="#E2E8F0" stroke-width="1"/><text x="316.0" y="266" font-family="Inter, DejaVu Sans, Arial, sans-serif" font-size="12" font-weight="700" fill="#64748B" text-anchor="middle" opacity="1" letter-spacing="0">Letná</text><text x="20" y="316" font-family="Inter, DejaVu Sans, Arial, sans-serif" font-size="18" font-weight="800" fill="#0F172A" text-anchor="start" opacity="1" letter-spacing="0">Nejbližší odjezdy</text><text x="373" y="316" font-family="Inter, DejaVu Sans, Arial, sans-serif" font-size="13" font-weight="700" fill="#64748B" text-anchor="end" opacity="1" letter-spacing="0">4 spoje</text><rect x="20" y="336" width="353" height="78" fill="#FFFFFF" opacity="1" rx="20" ry="20" stroke="#E2E8F0" stroke-width="1"/><rect x="36" y="353" width="50" height="36" fill="#EAF2FF" opacity="1" rx="14" ry="14"/><text x="61" y="377" font-family="Inter, DejaVu Sans, Arial, sans-serif" font-size="18" font-weight="850" fill="#2563EB" text-anchor="middle" opacity="1" letter-spacing="0">26</text><text x="100" y="366" font-family="Inter, DejaVu Sans, Arial, sans-serif" font-size="15" font-weight="750" fill="#0F172A" text-anchor="start" opacity="1" letter-spacing="0">Nádraží Hostivař</text><text x="100" y="389" font-family="Inter, DejaVu Sans, Arial, sans-serif" font-size="12.2" font-weight="400" fill="#64748B" text-anchor="start" opacity="1" letter-spacing="0">st. A • tram</text><text x="281" y="368" font-family="Inter, DejaVu Sans, Arial, sans-serif" font-size="19" font-weight="850" fill="#0F172A" text-anchor="end" opacity="1" letter-spacing="0">3</text><text x="281" y="388" font-family="Inter, DejaVu Sans, Arial, sans-serif" font-size="11.5" font-weight="400" fill="#64748B" text-anchor="end" opacity="1" letter-spacing="0">min</text><rect x="312" y="354" width="42" height="42" fill="#EAF2FF" opacity="1" rx="15" ry="15"/><path d="M325 383 L331 366 L342 363 L337 381 Z" fill="none" opacity="1" stroke="#2563EB" stroke-width="2" stroke-linecap="round" stroke-linejoin="round"/><circle cx="334" cy="374" r="2.8" fill="#2563EB" opacity="1"/><rect x="20" y="426" width="353" height="78" fill="#FFFFFF" opacity="1" rx="20" ry="20" stroke="#E2E8F0" stroke-width="1"/><rect x="36" y="443" width="50" height="36" fill="#FFF4DB" opacity="1" rx="14" ry="14"/><text x="61" y="467" font-family="Inter, DejaVu Sans, Arial, sans-serif" font-size="18" font-weight="850" fill="#F59E0B" text-anchor="middle" opacity="1" letter-spacing="0">8</text><text x="100" y="456" font-family="Inter, DejaVu Sans, Arial, sans-serif" font-size="15" font-weight="750" fill="#0F172A" text-anchor="start" opacity="1" letter-spacing="0">Starý Hloubětín</text><text x="100" y="479" font-family="Inter, DejaVu Sans, Arial, sans-serif" font-size="12.2" font-weight="400" fill="#64748B" text-anchor="start" opacity="1" letter-spacing="0">st. B • tram</text><rect x="238" y="445" width="50" height="32" fill="#FFF4DB" opacity="1" rx="12" ry="12"/><text x="263" y="466" font-family="Inter, DejaVu Sans, Arial, sans-serif" font-size="14" font-weight="800" fill="#92400E" text-anchor="middle" opacity="1" letter-spacing="0">+2</text><rect x="312" y="444" width="42" height="42" fill="#EAF2FF" opacity="1" rx="15" ry="15"/><path d="M325 473 L331 456 L342 453 L337 471 Z" fill="none" opacity="1" stroke="#2563EB" stroke-width="2" stroke-linecap="round" stroke-linejoin="round"/><circle cx="334" cy="464" r="2.8" fill="#2563EB" opacity="1"/><rect x="20" y="516" width="353" height="78" fill="#FFFFFF" opacity="1" rx="20" ry="20" stroke="#E2E8F0" stroke-width="1"/><rect x="36" y="533" width="50" height="36" fill="#DDF8F3" opacity="1" rx="14" ry="14"/><text x="61" y="557" font-family="Inter, DejaVu Sans, Arial, sans-serif" font-size="18" font-weight="850" fill="#0F766E" text-anchor="middle" opacity="1" letter-spacing="0">131</text><text x="100" y="546" font-family="Inter, DejaVu Sans, Arial, sans-serif" font-size="15" font-weight="750" fill="#0F172A" text-anchor="start" opacity="1" letter-spacing="0">Bořislavka</text><text x="100" y="569" font-family="Inter, DejaVu Sans, Arial, sans-serif" font-size="12.2" font-weight="400" fill="#64748B" text-anchor="start" opacity="1" letter-spacing="0">st. D • bus</text><text x="281" y="548" font-family="Inter, DejaVu Sans, Arial, sans-serif" font-size="19" font-weight="850" fill="#0F172A" text-anchor="end" opacity="1" letter-spacing="0">9</text><text x="281" y="568" font-family="Inter, DejaVu Sans, Arial, sans-serif" font-size="11.5" font-weight="400" fill="#64748B" text-anchor="end" opacity="1" letter-spacing="0">min</text><rect x="312" y="534" width="42" height="42" fill="#EAF2FF" opacity="1" rx="15" ry="15"/><path d="M325 563 L331 546 L342 543 L337 561 Z" fill="none" opacity="1" stroke="#2563EB" stroke-width="2" stroke-linecap="round" stroke-linejoin="round"/><circle cx="334" cy="554" r="2.8" fill="#2563EB" opacity="1"/><rect x="20" y="606" width="353" height="78" fill="#FFFFFF" opacity="1" rx="20" ry="20" stroke="#E2E8F0" stroke-width="1"/><rect x="36" y="623" width="50" height="36" fill="#EAF2FF" opacity="1" rx="14" ry="14"/><text x="61" y="647" font-family="Inter, DejaVu Sans, Arial, sans-serif" font-size="18" font-weight="850" fill="#2563EB" text-anchor="middle" opacity="1" letter-spacing="0">A</text><text x="100" y="636" font-family="Inter, DejaVu Sans, Arial, sans-serif" font-size="15" font-weight="750" fill="#0F172A" text-anchor="start" opacity="1" letter-spacing="0">Depo Hostivař</text><text x="100" y="659" font-family="Inter, DejaVu Sans, Arial, sans-serif" font-size="12.2" font-weight="400" fill="#64748B" text-anchor="start" opacity="1" letter-spacing="0">kolej 1 • metro</text><text x="281" y="638" font-family="Inter, DejaVu Sans, Arial, sans-serif" font-size="19" font-weight="850" fill="#0F172A" text-anchor="end" opacity="1" letter-spacing="0">11</text><text x="281" y="658" font-family="Inter, DejaVu Sans, Arial, sans-serif" font-size="11.5" font-weight="400" fill="#64748B" text-anchor="end" opacity="1" letter-spacing="0">min</text><rect x="312" y="624" width="42" height="42" fill="#EAF2FF" opacity="1" rx="15" ry="15"/><path d="M325 653 L331 636 L342 633 L337 651 Z" fill="none" opacity="1" stroke="#2563EB" stroke-width="2" stroke-linecap="round" stroke-linejoin="round"/><circle cx="334" cy="644" r="2.8" fill="#2563EB" opacity="1"/><rect x="20" y="706" width="353" height="36" fill="#FFFFFF" opacity="1" rx="18" ry="18" stroke="#E2E8F0" stroke-width="1"/><text x="40" y="729" font-family="Inter, DejaVu Sans, Arial, sans-serif" font-size="12.1" font-weight="400" fill="#64748B" text-anchor="start" opacity="1" letter-spacing="0">Ikona mapy u spoje otevře aktuální polohu vozidla</text><rect x="0" y="752" width="393" height="100" fill="#FFFFFF" opacity="1" stroke="#E2E8F0" stroke-width="1"/><circle cx="66" cy="783" r="8" fill="none" opacity="1" stroke="#94A3B8" stroke-width="2"/><path d="M66 791 C58 781 58 776 66 771 C74 776 74 781 66 791" fill="none" opacity="1" stroke="#94A3B8" stroke-width="2" stroke-linecap="round" stroke-linejoin="round"/><text x="66" y="826" font-family="Inter, DejaVu Sans, Arial, sans-serif" font-size="11.5" font-weight="500" fill="#94A3B8" text-anchor="middle" opacity="1" letter-spacing="0">Zastávky</text><rect x="152" y="765" width="90" height="46" fill="#EAF2FF" opacity="1" rx="23" ry="23"/><rect x="184" y="773" width="26" height="18" fill="none" opacity="1" rx="4" ry="4" stroke="#2563EB" stroke-width="2"/><circle cx="190" cy="795" r="2.5" fill="#2563EB" opacity="1"/><circle cx="204" cy="795" r="2.5" fill="#2563EB" opacity="1"/><line x1="189" y1="779" x2="205" y2="779" stroke="#2563EB" stroke-width="2" stroke-linecap="round" opacity="1"/><text x="197" y="826" font-family="Inter, DejaVu Sans, Arial, sans-serif" font-size="11.5" font-weight="700" fill="#2563EB" text-anchor="middle" opacity="1" letter-spacing="0">Odjezdy</text><path d="M316 793 L323 772 L340 765 L333 786 Z" fill="none" opacity="1" stroke="#94A3B8" stroke-width="2" stroke-linecap="round" stroke-linejoin="round"/><circle cx="329" cy="779" r="2.5" fill="#94A3B8" opacity="1"/><text x="328" y="826" font-family="Inter, DejaVu Sans, Arial, sans-serif" font-size="11.5" font-weight="500" fill="#94A3B8" text-anchor="middle" opacity="1" letter-spacing="0">Mapa</text>
</svg>